<svg width="20" height="22" viewBox="0 0 20 22" fill="none" xmlns="http://www.w3.org/2000/svg">
<g clip-path="url(#clip0_9_50)">
<path d="M10 0C4.5 0 0 4.95 0 11C0 17.05 4.5 22 10 22C15.5 22 20 17.05 20 11C20 4.95 15.5 0 10 0ZM10 19.8C5.6 19.8 2 15.84 2 11C2 6.16 5.6 2.2 10 2.2C14.4 2.2 18 6.16 18 11C18 15.84 14.4 19.8 10 19.8Z" fill="black" fill-opacity="0.9"/>
<path d="M10.5 5.5H9V12.1L14.2 15.62L15 14.19L10.5 11.22V5.5Z" fill="black" fill-opacity="0.9"/>
</g>
<defs>
<clipPath id="clip0_9_50">
<rect width="20" height="22" fill="white"/>
</clipPath>
</defs>
</svg>
