<svg width="22" height="22" viewBox="0 0 22 22" fill="none" xmlns="http://www.w3.org/2000/svg">
<g clip-path="url(#clip0_9_26)">
<path d="M8.55181 0C3.8299 0 0.00125122 3.82865 0.00125122 8.55059C0.00125122 13.2725 3.8299 17.1012 8.55184 17.1012C10.3676 17.1012 12.0515 16.5348 13.4357 15.5701L13.4367 15.5691L19.7782 21.9106C19.8959 22.0283 20.083 22.0313 20.2038 21.9106L21.9129 20.2015C22.0306 20.0838 22.0245 19.8887 21.9119 19.776L15.5713 13.4355C16.536 12.0503 17.1024 10.3663 17.1024 8.55059C17.1024 3.82865 13.2737 0 8.55181 0ZM8.55181 15.0893C4.94043 15.0893 2.01313 12.162 2.01313 8.55059C2.01313 4.93922 4.94047 2.01191 8.55181 2.01191C12.1631 2.01191 15.0905 4.93922 15.0905 8.55059C15.0905 12.162 12.1632 15.0893 8.55181 15.0893Z" fill="black"/>
</g>
<defs>
<clipPath id="clip0_9_26">
<rect width="22" height="22" fill="white"/>
</clipPath>
</defs>
</svg>
