<svg width="26" height="26" viewBox="0 0 26 26" fill="none" xmlns="http://www.w3.org/2000/svg">
<g clip-path="url(#clip0_12_55)">
<mask id="mask0_12_55" style="mask-type:luminance" maskUnits="userSpaceOnUse" x="0" y="0" width="26" height="26">
<path d="M26 0H0V26H26V0Z" fill="white"/>
</mask>
<g mask="url(#mask0_12_55)">
<mask id="mask1_12_55" style="mask-type:luminance" maskUnits="userSpaceOnUse" x="0" y="0" width="26" height="26">
<path d="M26 0H0V26H26V0Z" fill="white"/>
</mask>
<g mask="url(#mask1_12_55)">
<path d="M19.5 24.375H6.5C5.42255 24.375 4.38923 23.947 3.62738 23.1852C2.8655 22.4233 2.4375 21.39 2.4375 20.3125C2.43665 20.2155 2.45316 20.1192 2.48625 20.0281C3.26705 17.9684 4.65426 16.194 6.46466 14.9392C8.27508 13.6843 10.4235 13.0081 12.6261 13H13.3736C15.5765 13.0081 17.725 13.6843 19.5353 14.9392C21.3458 16.194 22.733 17.9684 23.5136 20.0281C23.5468 20.1192 23.5634 20.2155 23.5625 20.3125C23.5625 21.39 23.1345 22.4233 22.3727 23.1852C21.6108 23.947 20.5775 24.375 19.5 24.375ZM4.0625 20.4506C4.09781 21.0729 4.37012 21.6579 4.82347 22.0856C5.27683 22.5133 5.87677 22.751 6.5 22.75H19.5C20.1231 22.751 20.7232 22.5133 21.1766 22.0856C21.6298 21.6579 21.9022 21.0729 21.9375 20.4506C21.2537 18.7364 20.073 17.2656 18.547 16.2276C17.0209 15.1894 15.2193 14.6314 13.3736 14.625H12.6261C10.7806 14.6314 8.97908 15.1894 7.45306 16.2276C5.92706 17.2656 4.74629 18.7364 4.0625 20.4506Z" fill="black"/>
<path d="M13 12.1875C12.0358 12.1875 11.0933 11.9016 10.2916 11.3659C9.4899 10.8302 8.86507 10.0689 8.4961 9.17809C8.12711 8.28729 8.03058 7.30709 8.21866 6.36143C8.40677 5.41578 8.87107 4.54714 9.55285 3.86536C10.2346 3.18357 11.1033 2.71928 12.0489 2.53117C12.9946 2.34308 13.9748 2.43961 14.8656 2.80859C15.7563 3.17757 16.5178 3.8024 17.0534 4.60409C17.5891 5.40579 17.875 6.34831 17.875 7.3125C17.875 8.60544 17.3614 9.84541 16.4472 10.7596C15.5328 11.6739 14.293 12.1875 13 12.1875ZM13 4.0625C12.3573 4.0625 11.7288 4.25311 11.1944 4.61022C10.6599 4.96733 10.2434 5.47493 9.99739 6.06878C9.75141 6.66264 9.68705 7.31611 9.81244 7.94654C9.93785 8.57699 10.2474 9.15607 10.7019 9.61061C11.1564 10.0651 11.7355 10.3747 12.3659 10.5001C12.9964 10.6255 13.6499 10.5611 14.2438 10.3151C14.8377 10.0691 15.3452 9.65255 15.7023 9.1181C16.0593 8.58364 16.25 7.9553 16.25 7.3125C16.25 6.45056 15.9077 5.6239 15.2981 5.0144C14.6886 4.40491 13.8619 4.0625 13 4.0625Z" fill="black"/>
<path d="M19.5 24.375H6.5C5.42255 24.375 4.38923 23.947 3.62738 23.1852C2.8655 22.4233 2.4375 21.39 2.4375 20.3125C2.43665 20.2155 2.45316 20.1192 2.48625 20.0281C3.26705 17.9684 4.65426 16.194 6.46466 14.9392C8.27508 13.6843 10.4235 13.0081 12.6261 13H13.3736C15.5765 13.0081 17.725 13.6843 19.5353 14.9392C21.3458 16.194 22.733 17.9684 23.5136 20.0281C23.5468 20.1192 23.5634 20.2155 23.5625 20.3125C23.5625 21.39 23.1345 22.4233 22.3727 23.1852C21.6108 23.947 20.5775 24.375 19.5 24.375ZM4.0625 20.4506C4.09781 21.0729 4.37012 21.6579 4.82347 22.0856C5.27683 22.5133 5.87677 22.751 6.5 22.75H19.5C20.1231 22.751 20.7232 22.5133 21.1766 22.0856C21.6298 21.6579 21.9022 21.0729 21.9375 20.4506C21.2537 18.7364 20.073 17.2656 18.547 16.2276C17.0209 15.1894 15.2193 14.6314 13.3736 14.625H12.6261C10.7806 14.6314 8.97908 15.1894 7.45306 16.2276C5.92706 17.2656 4.74629 18.7364 4.0625 20.4506Z" fill="black"/>
</g>
</g>
</g>
<defs>
<clipPath id="clip0_12_55">
<rect width="26" height="26" fill="white"/>
</clipPath>
</defs>
</svg>
